<svg data-v-fde0c5aa="" xmlns="http://www.w3.org/2000/svg" viewBox="0 0 300 300" class="iconAbove"><!----><defs data-v-fde0c5aa=""><!----></defs><rect data-v-fde0c5aa="" fill="transparent" x="0" y="0" width="300px" height="300px" class="logo-background-square"></rect><defs data-v-fde0c5aa=""><!----></defs><g data-v-fde0c5aa="" id="b7802810-e158-49f9-aa75-a784fe72d198" fill="#000000" transform="matrix(6.210129496811235,0,0,6.210129496811235,42.3370469567185,188.27300016612156)"><path d="M7.15 0.81L6.36 1.74L6.36 1.74Q6.24 1.74 6.19 1.72L6.19 1.72L6.16 1.76L6.16 1.76Q6.06 1.78 5.97 1.79L5.97 1.79L5.97 1.79Q5.88 1.81 5.77 1.83L5.77 1.83L5.73 1.83L5.73 1.83Q5.35 1.90 4.90 2.03L4.90 2.03L4.90 2.03Q4.45 2.16 3.99 2.34L3.99 2.34L3.99 2.34Q3.44 2.70 2.90 3.21L2.90 3.21L2.90 3.21Q2.72 3.70 2.60 4.21L2.60 4.21L2.60 4.21Q2.49 4.72 2.58 5.21L2.58 5.21L2.58 5.21Q2.97 5.22 3.40 5.11L3.40 5.11L3.40 5.11Q3.84 5.00 4.28 4.87L4.28 4.87L4.28 4.87Q4.72 4.75 5.16 4.65L5.16 4.65L5.16 4.65Q5.60 4.55 5.99 4.59L5.99 4.59L5.99 4.59Q6.10 4.62 6.24 4.66L6.24 4.66L6.24 4.66Q6.38 4.69 6.52 4.72L6.52 4.72L6.52 4.72Q6.90 4.68 7.17 4.70L7.17 4.70L7.17 4.70Q7.43 4.72 7.60 4.87L7.60 4.87L7.60 4.87Q7.76 4.90 7.80 4.96L7.80 4.96L7.80 4.96Q7.97 5.24 7.99 5.50L7.99 5.50L7.99 5.50Q8.01 5.75 7.92 5.99L7.92 5.99L7.92 5.99Q7.92 6.34 7.77 6.69L7.77 6.69L7.77 6.69Q7.62 7.04 7.38 7.36L7.38 7.36L7.38 7.36Q7.20 7.70 6.92 8.02L6.92 8.02L6.92 8.02Q6.65 8.33 6.36 8.62L6.36 8.62L6.36 8.62Q6.06 8.90 5.77 9.16L5.77 9.16L5.77 9.16Q5.47 9.42 5.25 9.65L5.25 9.65L5.25 9.65Q4.80 10.14 4.43 10.38L4.43 10.38L4.43 10.38Q4.06 10.63 3.64 10.70L3.64 10.70L3.64 10.70Q3.26 10.85 2.87 10.93L2.87 10.93L2.87 10.93Q2.84 10.93 2.81 10.94L2.81 10.94L2.81 10.94Q2.77 10.95 2.74 10.95L2.74 10.95L2.74 10.95Q2.63 11.03 2.59 11.07L2.59 11.07L2.59 11.07Q2.59 11.05 2.60 11.03L2.60 11.03L2.60 11.03Q2.62 11.00 2.62 10.98L2.62 10.98L2.62 10.98Q2.34 11.02 2.11 11.02L2.11 11.02L2.11 11.02Q1.89 11.02 1.67 10.99L1.67 10.99L1.67 10.99Q1.46 10.96 1.23 10.89L1.23 10.89L1.23 10.89Q1.01 10.82 0.71 10.74L0.71 10.74L0.71 10.74Q0.56 10.68 0.41 10.63L0.41 10.63L0.41 10.63Q0.27 10.57 0.17 10.43L0.17 10.43L0.17 10.43Q0.28 10.32 0.39 10.22L0.39 10.22L0.39 10.22Q0.50 10.12 0.62 10.01L0.62 10.01L0.62 10.01Q0.57 9.88 0.49 9.76L0.49 9.76L0.49 9.76Q0.50 9.63 0.59 9.48L0.59 9.48L0.59 9.48Q0.69 9.32 0.82 9.18L0.82 9.18L0.82 9.18Q0.95 9.04 1.11 8.95L1.11 8.95L1.11 8.95Q1.26 8.86 1.40 8.89L1.40 8.89L1.41 8.88L1.41 8.88Q1.41 8.90 1.44 8.93L1.44 8.93L1.44 8.93Q1.53 9.04 1.61 9.04L1.61 9.04L1.51 9.16L1.51 9.16Q1.53 9.24 1.58 9.31L1.58 9.31L1.58 9.31Q1.64 9.42 1.81 9.52L1.81 9.52L1.83 9.49L1.83 9.49Q2.38 9.60 2.85 9.62L2.85 9.62L2.85 9.62Q3.32 9.63 3.77 9.56L3.77 9.56L3.77 9.56Q3.99 9.35 4.20 9.13L4.20 9.13L4.20 9.13Q4.41 8.92 4.65 8.69L4.65 8.69L4.66 8.68L4.66 8.68Q4.69 8.65 4.73 8.62L4.73 8.62L4.73 8.62Q4.76 8.58 4.80 8.55L4.80 8.55L4.87 8.48L4.87 8.48Q4.98 8.37 5.10 8.26L5.10 8.26L5.10 8.26Q5.22 8.15 5.35 8.04L5.35 8.04L5.35 8.04Q5.39 7.99 5.44 7.96L5.44 7.96L5.44 7.96Q5.49 7.92 5.53 7.88L5.53 7.88L5.53 7.88Q5.66 7.42 5.65 6.96L5.65 6.96L5.65 6.96Q5.64 6.50 5.46 5.94L5.46 5.94L5.42 5.94L5.39 5.96L5.39 5.95L5.39 5.95Q4.89 6.05 4.40 6.20L4.40 6.20L4.40 6.20Q3.91 6.36 3.41 6.49L3.41 6.49L3.41 6.49Q2.91 6.62 2.42 6.69L2.42 6.69L2.42 6.69Q1.93 6.76 1.44 6.68L1.44 6.68L1.44 6.68Q1.29 6.65 1.15 6.58L1.15 6.58L1.15 6.58Q1.01 6.51 0.87 6.44L0.87 6.44L0.87 6.44Q0.70 6.37 0.64 6.21L0.64 6.21L0.64 6.21Q0.57 6.05 0.60 5.85L0.60 5.85L0.60 5.85Q0.55 5.67 0.58 5.46L0.58 5.46L0.58 5.46Q0.62 5.25 0.70 5.01L0.70 5.01L0.70 5.01Q0.71 4.80 0.73 4.59L0.73 4.59L0.73 4.59Q0.76 4.38 0.79 4.19L0.79 4.19L0.79 4.19Q0.83 4.00 0.85 3.87L0.85 3.87L0.85 3.87Q0.88 3.74 0.90 3.68L0.90 3.68L0.90 3.68Q0.91 3.64 0.95 3.56L0.95 3.56L0.95 3.56Q0.99 3.47 1.04 3.39L1.04 3.39L1.04 3.39Q1.09 3.30 1.13 3.24L1.13 3.24L1.13 3.24Q1.18 3.18 1.18 3.18L1.18 3.18L1.18 3.18Q1.39 2.83 1.69 2.55L1.69 2.55L1.69 2.55Q2.00 2.28 2.35 2.06L2.35 2.06L2.35 2.06Q2.69 1.85 3.06 1.66L3.06 1.66L3.06 1.66Q3.43 1.47 3.78 1.29L3.78 1.29L3.78 1.29Q4.10 1.12 4.41 0.94L4.41 0.94L4.41 0.94Q4.72 0.76 5.10 0.71L5.10 0.71L5.10 0.71Q5.26 0.70 5.43 0.73L5.43 0.73L5.43 0.73Q5.60 0.76 5.77 0.80L5.77 0.80L5.77 0.80Q5.85 0.81 5.94 0.82L5.94 0.82L5.94 0.82Q6.03 0.83 6.13 0.84L6.13 0.84L6.13 0.84Q6.37 0.80 6.63 0.79L6.63 0.79L6.63 0.79Q6.89 0.78 7.15 0.81L7.15 0.81ZM4.51 9.34L5.14 8.97L5.14 8.97Q5.18 8.88 5.21 8.79L5.21 8.79L5.21 8.79Q5.25 8.69 5.29 8.60L5.29 8.60L5.29 8.60Q5.08 8.78 4.89 8.97L4.89 8.97L4.89 8.97Q4.70 9.16 4.51 9.34L4.51 9.34ZM6.62 6.38L6.62 6.38L6.62 6.38Q6.59 6.36 6.59 6.32L6.59 6.32L6.59 6.32Q6.58 6.29 6.55 6.26L6.55 6.26L6.55 6.26Q6.54 6.71 6.43 7.17L6.43 7.17L6.43 7.17Q6.51 7.10 6.59 7.03L6.59 7.03L6.59 7.03Q6.66 6.96 6.75 6.89L6.75 6.89L6.75 6.89Q6.73 6.65 6.62 6.38ZM1.74 3.36L1.74 3.36L1.74 3.36Q2.03 3.00 2.42 2.67L2.42 2.67L2.42 2.67Q2.45 2.63 2.47 2.59L2.47 2.59L2.47 2.59Q2.49 2.55 2.52 2.51L2.52 2.51L2.52 2.51Q2.32 2.62 2.17 2.72L2.17 2.72L2.17 2.72Q2.02 2.83 1.92 2.90L1.92 2.90L1.92 2.90Q1.82 3.00 1.74 3.36ZM1.61 4.69L1.61 4.69L1.61 4.69Q1.64 4.83 1.69 4.90L1.69 4.90L1.82 4.31L1.82 4.31Q1.69 4.49 1.61 4.69ZM12.42 4.14L12.42 4.14L12.42 4.14Q12.42 4.23 12.43 4.30L12.43 4.30L12.43 4.30Q12.43 4.38 12.43 4.47L12.43 4.47L12.43 4.47Q12.46 4.63 12.47 4.81L12.47 4.81L12.47 4.81Q12.49 4.98 12.52 5.15L12.52 5.15L12.52 5.15Q12.75 5.12 12.99 5.11L12.99 5.11L12.99 5.11Q13.22 5.10 13.45 5.11L13.45 5.11L13.45 5.11Q13.57 5.10 13.65 5.10L13.65 5.10L13.65 5.10Q13.75 5.10 13.86 5.08L13.86 5.08L13.82 5.12L13.82 5.12Q13.94 5.14 14.07 5.14L14.07 5.14L14.07 5.14Q14.20 5.15 14.32 5.18L14.32 5.18L14.41 5.18L14.38 5.21L14.39 5.21L14.41 5.21L14.41 5.21Q14.55 5.25 14.48 5.38L14.48 5.38L14.48 5.38Q14.41 5.52 14.25 5.67L14.25 5.67L14.25 5.67Q14.10 5.82 13.93 5.96L13.93 5.96L13.93 5.96Q13.76 6.09 13.69 6.12L13.69 6.12L13.69 6.12Q13.68 6.12 13.66 6.13L13.66 6.13L13.66 6.13Q13.65 6.13 13.64 6.13L13.64 6.13L13.57 6.13L13.57 6.13Q13.43 6.15 13.30 6.15L13.30 6.15L13.30 6.15Q13.17 6.16 13.05 6.16L13.05 6.16L13.05 6.16Q12.94 6.17 12.84 6.18L12.84 6.18L12.84 6.18Q12.74 6.19 12.64 6.20L12.64 6.20L12.64 6.20Q12.68 6.64 12.71 7.06L12.71 7.06L12.71 7.06Q12.74 7.49 12.73 7.91L12.73 7.91L12.73 7.91Q12.71 8.25 12.71 8.68L12.71 8.68L12.71 8.68Q12.70 9.11 12.70 9.52L12.70 9.52L12.70 9.52Q12.73 9.74 12.74 9.96L12.74 9.96L12.74 9.96Q12.75 10.18 12.75 10.39L12.75 10.39L12.75 10.39Q12.74 10.47 12.63 10.63L12.63 10.63L12.63 10.63Q12.52 10.79 12.38 10.94L12.38 10.94L12.38 10.94Q12.24 11.09 12.09 11.18L12.09 11.18L12.09 11.18Q11.94 11.27 11.84 11.20L11.84 11.20L11.84 11.20Q11.84 11.20 11.83 11.21L11.83 11.21L11.83 11.19L11.83 11.19Q11.82 11.12 11.81 11.07L11.81 11.07L11.81 11.07Q11.80 11.02 11.79 10.96L11.79 10.96L11.79 10.96Q11.70 11.06 11.61 11.15L11.61 11.15L11.61 11.15Q11.52 11.24 11.43 11.30L11.43 11.30L11.43 11.30Q11.34 11.35 11.26 11.38L11.26 11.38L11.26 11.38Q11.19 11.40 11.13 11.34L11.13 11.34L11.13 11.34Q10.96 10.89 10.96 10.41L10.96 10.41L10.96 10.41Q10.95 9.93 10.93 9.45L10.93 9.45L10.93 9.45Q10.89 8.69 10.87 7.96L10.87 7.96L10.87 7.96Q10.85 7.22 10.86 6.47L10.86 6.47L10.86 6.47Q10.75 6.50 10.66 6.51L10.66 6.51L10.66 6.51Q10.57 6.52 10.46 6.54L10.46 6.54L10.44 6.54L10.19 6.83L10.19 6.83Q9.91 6.83 9.62 6.86L9.62 6.86L9.62 6.86Q9.32 6.89 9.06 6.82L9.06 6.82L9.06 6.82Q8.99 6.76 9.03 6.62L9.03 6.62L9.03 6.62Q9.02 6.62 9.02 6.62L9.02 6.62L9.02 6.62Q9.02 6.61 9.03 6.61L9.03 6.61L9.03 6.61Q8.99 6.58 8.99 6.55L8.99 6.55L8.99 6.55Q8.96 6.55 8.95 6.57L8.95 6.57L8.95 6.57Q8.93 6.58 8.90 6.58L8.90 6.58L8.90 6.58Q8.81 6.59 8.79 6.57L8.79 6.57L8.79 6.57Q8.76 6.55 8.78 6.45L8.78 6.45L8.78 6.45Q8.89 6.01 9.18 5.83L9.18 5.83L9.18 5.83Q9.48 5.66 9.84 5.59L9.84 5.59L9.84 5.59Q10.09 5.50 10.35 5.43L10.35 5.43L10.35 5.43Q10.61 5.36 10.88 5.31L10.88 5.31L10.88 5.31Q10.88 5.12 10.88 4.96L10.88 4.96L10.88 4.96Q10.88 4.77 10.91 4.61L10.91 4.61L10.91 4.61Q10.92 4.49 11.05 4.30L11.05 4.30L11.05 4.30Q11.17 4.12 11.34 3.96L11.34 3.96L11.34 3.96Q11.41 3.70 11.67 3.48L11.67 3.48L11.67 3.48Q11.93 3.26 12.17 3.19L12.17 3.19L12.17 3.19Q12.26 3.21 12.31 3.30L12.31 3.30L12.31 3.30Q12.36 3.39 12.38 3.52L12.38 3.52L12.38 3.52Q12.40 3.65 12.40 3.79L12.40 3.79L12.40 3.79Q12.40 3.93 12.40 4.06L12.40 4.06L12.40 4.06Q12.42 4.09 12.42 4.14ZM15.89 6.82L15.89 6.82L15.89 6.82Q16.09 6.48 16.34 6.17L16.34 6.17L16.34 6.17Q16.60 5.87 16.91 5.62L16.91 5.62L16.91 5.62Q17.21 5.38 17.54 5.21L17.54 5.21L17.54 5.21Q17.88 5.05 18.21 5.00L18.21 5.00L18.21 5.00Q18.61 4.73 19.05 4.55L19.05 4.55L19.05 4.55Q19.49 4.37 19.80 4.52L19.80 4.52L19.80 4.52Q20.19 4.75 20.41 5.05L20.41 5.05L20.41 5.05Q20.57 5.10 20.69 5.18L20.69 5.18L20.69 5.18Q20.73 5.22 20.78 5.26L20.78 5.26L20.78 5.26Q20.82 5.31 20.86 5.36L20.86 5.36L20.86 5.36Q21.01 5.22 21.14 5.17L21.14 5.17L21.14 5.17Q21.27 5.11 21.29 5.25L21.29 5.25L21.29 5.25Q21.35 5.66 21.36 6.05L21.36 6.05L21.36 6.05Q21.38 6.45 21.36 6.86L21.36 6.86L21.36 6.86Q21.38 6.92 21.38 6.96L21.38 6.96L21.38 6.96Q21.39 7 21.39 7.04L21.39 7.04L21.39 7.04Q21.39 7.31 21.43 7.60L21.43 7.60L21.43 7.60Q21.46 7.90 21.34 8.12L21.34 8.12L21.34 8.12Q21.34 8.19 21.33 8.27L21.33 8.27L21.33 8.27Q21.32 8.34 21.32 8.41L21.32 8.41L21.32 8.41Q21.39 8.95 21.41 9.39L21.41 9.39L21.41 9.39Q21.43 9.53 21.45 9.67L21.45 9.67L21.45 9.67Q21.48 9.80 21.49 9.93L21.49 9.93L21.49 9.93Q21.50 10.01 21.56 10.08L21.56 10.08L21.50 10.14L21.50 10.14Q21.50 10.39 21.45 10.62L21.45 10.62L21.45 10.62Q21.39 10.85 21.22 11.06L21.22 11.06L21.22 11.06Q21.18 11.10 21.09 11.19L21.09 11.19L21.09 11.19Q21 11.28 20.89 11.37L20.89 11.37L20.89 11.37Q20.79 11.45 20.69 11.49L20.69 11.49L20.69 11.49Q20.59 11.52 20.52 11.45L20.52 11.45L20.52 11.45Q20.51 11.44 20.51 11.42L20.51 11.42L20.51 11.42Q20.51 11.42 20.50 11.41L20.50 11.41L20.50 11.41Q20.48 11.41 20.47 11.42L20.47 11.42L20.43 11.42L20.43 11.42Q20.33 11.42 20.30 11.40L20.30 11.40L20.30 11.40Q20.23 11.19 20.23 10.91L20.23 10.91L20.23 10.91Q20.23 10.64 20.20 10.44L20.20 10.44L20.20 10.44Q20.17 10.23 20.15 10.02L20.15 10.02L20.15 10.02Q20.13 9.81 20.10 9.59L20.10 9.59L20.10 9.59Q19.74 9.83 19.31 10.00L19.31 10.00L19.31 10.00Q18.87 10.16 18.38 10.30L18.38 10.30L18.38 10.30Q18.30 10.33 18.22 10.35L18.22 10.35L18.22 10.35Q18.14 10.37 18.06 10.40L18.06 10.40L18.06 10.40Q17.85 10.51 17.63 10.61L17.63 10.61L17.63 10.61Q17.42 10.70 17.20 10.74L17.20 10.74L17.20 10.74Q16.98 10.78 16.77 10.75L16.77 10.75L16.77 10.75Q16.56 10.72 16.35 10.57L16.35 10.57L16.35 10.57Q15.97 10.30 15.67 9.93L15.67 9.93L15.67 9.93Q15.36 9.56 15.20 9.13L15.20 9.13L15.20 9.13Q15.15 8.99 15.16 8.82L15.16 8.82L15.16 8.82Q15.18 8.65 15.23 8.47L15.23 8.47L15.23 8.47Q15.15 8.13 15.20 7.92L15.20 7.92L15.20 7.92Q15.29 7.62 15.47 7.34L15.47 7.34L15.47 7.34Q15.65 7.07 15.89 6.82ZM17.42 9.21L17.42 9.21L17.42 9.21Q17.58 9.24 17.91 9.21L17.91 9.21L17.91 9.21Q18.23 9.17 18.61 9.07L18.61 9.07L18.61 9.07Q18.98 8.97 19.36 8.82L19.36 8.82L19.36 8.82Q19.74 8.67 20.01 8.47L20.01 8.47L20.01 8.47Q19.98 8.15 19.96 7.81L19.96 7.81L19.96 7.81Q19.94 7.48 19.91 7.14L19.91 7.14L19.91 7.14Q19.89 7.03 19.89 6.92L19.89 6.92L19.89 6.92Q19.89 6.79 19.88 6.68L19.88 6.68L19.82 6.72L19.82 6.72Q19.81 6.65 19.81 6.57L19.81 6.57L19.81 6.57Q19.81 6.48 19.81 6.41L19.81 6.41L19.81 6.41Q19.78 6.34 19.75 6.28L19.75 6.28L19.75 6.28Q19.71 6.22 19.68 6.15L19.68 6.15L19.56 6.26L19.56 6.26Q19.52 6.19 19.52 6.10L19.52 6.10L19.52 6.10Q19.52 6.01 19.49 5.94L19.49 5.94L19.49 5.94Q19.24 5.85 19.01 5.80L19.01 5.80L19.01 5.80Q18.79 5.75 18.58 5.74L18.58 5.74L18.58 5.74Q18.38 5.74 18.19 5.77L18.19 5.77L18.19 5.77Q18.00 5.80 17.81 5.84L17.81 5.84L17.81 5.84Q17.25 6.06 16.70 6.82L16.70 6.82L16.70 6.82Q16.51 7.06 16.32 7.39L16.32 7.39L16.32 7.39Q16.30 7.81 16.41 8.22L16.41 8.22L16.41 8.22Q16.49 8.34 16.60 8.51L16.60 8.51L16.60 8.51Q16.70 8.68 16.83 8.83L16.83 8.83L16.83 8.83Q16.95 8.97 17.10 9.09L17.10 9.09L17.10 9.09Q17.25 9.20 17.42 9.21ZM23.79 4.77L23.74 5.25L23.74 5.25Q23.84 5.12 23.93 5.01L23.93 5.01L23.93 5.01Q24.02 4.90 24.14 4.80L24.14 4.80L24.14 4.80Q24.18 4.77 24.14 4.87L24.14 4.87L24.14 4.87Q24.09 4.96 24.09 5.01L24.09 5.01L24.09 5.01Q24.05 5.22 24.05 5.42L24.05 5.42L24.05 5.42Q24.04 5.54 24.03 5.66L24.03 5.66L24.03 5.66Q24.02 5.78 24.02 5.89L24.02 5.89L24.02 5.89Q24.30 5.59 24.64 5.33L24.64 5.33L24.64 5.33Q24.98 5.07 25.34 4.91L25.34 4.91L25.34 4.91Q25.70 4.76 26.09 4.74L26.09 4.74L26.09 4.74Q26.47 4.72 26.84 4.90L26.84 4.90L26.84 4.90Q26.92 4.96 26.98 5.01L26.98 5.01L26.98 5.01Q27.16 5.05 27.32 5.14L27.32 5.14L27.32 5.14Q27.48 5.24 27.59 5.40L27.59 5.40L27.59 5.40Q27.75 5.64 27.80 5.92L27.80 5.92L27.80 5.92Q27.85 6.19 27.89 6.47L27.89 6.47L27.89 6.47Q27.80 6.47 27.73 6.47L27.73 6.47L27.73 6.47Q27.65 6.48 27.57 6.47L27.57 6.47L27.24 7.20L27.33 7.14L27.33 7.14Q27.24 7.21 27.14 7.26L27.14 7.26L27.14 7.26Q27.03 7.31 26.96 7.24L26.96 7.24L26.96 7.24Q26.94 7.17 26.93 7.08L26.93 7.08L26.93 7.08Q26.92 7 26.91 6.93L26.91 6.93L26.91 6.93Q26.87 6.94 26.78 6.94L26.78 6.94L26.78 6.94Q26.70 6.92 26.61 6.85L26.61 6.85L26.61 6.85Q26.57 6.85 26.54 6.80L26.54 6.80L26.54 6.80Q26.54 6.80 26.52 6.75L26.52 6.75L26.52 6.75Q26.45 6.68 26.38 6.62L26.38 6.62L26.38 6.62Q26.31 6.55 26.19 6.50L26.19 6.50L26.19 6.50Q25.97 6.41 25.68 6.40L25.68 6.40L25.68 6.40Q25.38 6.38 25.08 6.45L25.08 6.45L25.08 6.45Q24.78 6.51 24.51 6.64L24.51 6.64L24.51 6.64Q24.23 6.76 24.04 6.94L24.04 6.94L24.04 6.94Q24.04 7.35 24.12 7.88L24.12 7.88L24.12 7.88Q24.22 8.23 24.33 8.57L24.33 8.57L24.33 8.57Q24.44 8.90 24.56 9.23L24.56 9.23L24.42 9.37L24.42 9.37Q24.49 9.67 24.56 9.93L24.56 9.93L24.56 9.93Q24.64 10.19 24.71 10.39L24.71 10.39L24.71 10.39Q24.68 10.42 24.68 10.43L24.68 10.43L24.68 10.43Q24.67 10.44 24.64 10.46L24.64 10.46L24.64 10.46Q24.67 10.51 24.70 10.53L24.70 10.53L24.70 10.54L24.78 10.63L24.78 10.63Q24.81 10.60 24.84 10.58L24.84 10.58L24.84 10.58Q24.82 10.61 24.82 10.64L24.82 10.64L24.82 10.64Q24.82 10.68 24.81 10.71L24.81 10.71L24.81 10.71Q24.79 10.79 24.68 10.96L24.68 10.96L24.68 10.96Q24.56 11.13 24.41 11.28L24.41 11.28L24.41 11.28Q24.26 11.42 24.12 11.51L24.12 11.51L24.12 11.51Q23.97 11.59 23.88 11.51L23.88 11.51L23.88 11.51Q23.74 11.37 23.65 11.17L23.65 11.17L23.65 11.17Q23.55 10.98 23.46 10.74L23.46 10.74L23.46 10.74Q23.31 10.93 23.13 11.10L23.13 11.10L23.13 11.10Q22.95 11.26 22.81 11.21L22.81 11.21L22.81 11.21Q22.79 11.24 22.78 11.25L22.78 11.25L22.78 11.25Q22.76 11.26 22.75 11.28L22.75 11.28L22.75 11.28Q22.75 11.26 22.74 11.23L22.74 11.23L22.74 11.23Q22.74 11.20 22.74 11.17L22.74 11.17L22.74 11.17Q22.60 10.93 22.57 10.63L22.57 10.63L22.57 10.63Q22.54 10.32 22.51 10.05L22.51 10.05L22.51 10.05Q22.47 9.73 22.44 9.41L22.44 9.41L22.44 9.41Q22.41 9.10 22.40 8.78L22.40 8.78L22.40 8.78Q22.27 8.15 22.18 7.52L22.18 7.52L22.18 7.52Q22.08 6.89 22.05 6.23L22.05 6.23L22.41 5.92L22.41 5.71L22.41 5.71Q22.41 5.71 22.44 5.70L22.44 5.70L22.44 5.70Q22.50 5.57 22.62 5.41L22.62 5.41L22.62 5.41Q22.75 5.25 22.89 5.12L22.89 5.12L22.89 5.12Q23.03 5.00 23.16 4.94L23.16 4.94L23.16 4.94Q23.28 4.89 23.32 4.96L23.32 4.96L23.34 4.94L23.34 5.21L23.34 5.21Q23.42 5.08 23.54 4.98L23.54 4.98L23.54 4.98Q23.66 4.87 23.79 4.77L23.79 4.77ZM32.42 4.14L32.42 4.14L32.42 4.14Q32.42 4.23 32.43 4.30L32.43 4.30L32.43 4.30Q32.44 4.38 32.44 4.47L32.44 4.47L32.44 4.47Q32.47 4.63 32.48 4.81L32.48 4.81L32.48 4.81Q32.49 4.98 32.52 5.15L32.52 5.15L32.52 5.15Q32.76 5.12 32.99 5.11L32.99 5.11L32.99 5.11Q33.22 5.10 33.46 5.11L33.46 5.11L33.46 5.11Q33.57 5.10 33.66 5.10L33.66 5.10L33.66 5.10Q33.75 5.10 33.87 5.08L33.87 5.08L33.82 5.12L33.82 5.12Q33.95 5.14 34.08 5.14L34.08 5.14L34.08 5.14Q34.20 5.15 34.33 5.18L34.33 5.18L34.41 5.18L34.38 5.21L34.40 5.21L34.41 5.21L34.41 5.21Q34.55 5.25 34.48 5.38L34.48 5.38L34.48 5.38Q34.41 5.52 34.26 5.67L34.26 5.67L34.26 5.67Q34.10 5.82 33.94 5.96L33.94 5.96L33.94 5.96Q33.77 6.09 33.70 6.12L33.70 6.12L33.70 6.12Q33.68 6.12 33.67 6.13L33.67 6.13L33.67 6.13Q33.66 6.13 33.64 6.13L33.64 6.13L33.57 6.13L33.57 6.13Q33.43 6.15 33.31 6.15L33.31 6.15L33.31 6.15Q33.18 6.16 33.05 6.16L33.05 6.16L33.05 6.16Q32.94 6.17 32.84 6.18L32.84 6.18L32.84 6.18Q32.75 6.19 32.65 6.20L32.65 6.20L32.65 6.20Q32.69 6.64 32.72 7.06L32.72 7.06L32.72 7.06Q32.75 7.49 32.73 7.91L32.73 7.91L32.73 7.91Q32.72 8.25 32.71 8.68L32.71 8.68L32.71 8.68Q32.70 9.11 32.70 9.52L32.70 9.52L32.70 9.52Q32.73 9.74 32.75 9.96L32.75 9.96L32.75 9.96Q32.76 10.18 32.76 10.39L32.76 10.39L32.76 10.39Q32.75 10.47 32.63 10.63L32.63 10.63L32.63 10.63Q32.52 10.79 32.38 10.94L32.38 10.94L32.38 10.94Q32.24 11.09 32.10 11.18L32.10 11.18L32.10 11.18Q31.95 11.27 31.85 11.20L31.85 11.20L31.85 11.20Q31.85 11.20 31.84 11.21L31.84 11.21L31.84 11.19L31.84 11.19Q31.82 11.12 31.82 11.07L31.82 11.07L31.82 11.07Q31.81 11.02 31.79 10.96L31.79 10.96L31.79 10.96Q31.71 11.06 31.62 11.15L31.62 11.15L31.62 11.15Q31.53 11.24 31.44 11.30L31.44 11.30L31.44 11.30Q31.35 11.35 31.27 11.38L31.27 11.38L31.27 11.38Q31.19 11.40 31.14 11.34L31.14 11.34L31.14 11.34Q30.97 10.89 30.96 10.41L30.96 10.41L30.96 10.41Q30.95 9.93 30.94 9.45L30.94 9.45L30.94 9.45Q30.90 8.69 30.88 7.96L30.88 7.96L30.88 7.96Q30.86 7.22 30.87 6.47L30.87 6.47L30.87 6.47Q30.76 6.50 30.67 6.51L30.67 6.51L30.67 6.51Q30.58 6.52 30.46 6.54L30.46 6.54L30.45 6.54L30.20 6.83L30.20 6.83Q29.92 6.83 29.62 6.86L29.62 6.86L29.62 6.86Q29.33 6.89 29.06 6.82L29.06 6.82L29.06 6.82Q28.99 6.76 29.04 6.62L29.04 6.62L29.04 6.62Q29.02 6.62 29.02 6.62L29.02 6.62L29.02 6.62Q29.02 6.61 29.04 6.61L29.04 6.61L29.04 6.61Q28.99 6.58 28.99 6.55L28.99 6.55L28.99 6.55Q28.97 6.55 28.95 6.57L28.95 6.57L28.95 6.57Q28.94 6.58 28.91 6.58L28.91 6.58L28.91 6.58Q28.81 6.59 28.79 6.57L28.79 6.57L28.79 6.57Q28.77 6.55 28.78 6.45L28.78 6.45L28.78 6.45Q28.90 6.01 29.19 5.83L29.19 5.83L29.19 5.83Q29.48 5.66 29.85 5.59L29.85 5.59L29.85 5.59Q30.10 5.50 30.36 5.43L30.36 5.43L30.36 5.43Q30.62 5.36 30.88 5.31L30.88 5.31L30.88 5.31Q30.88 5.12 30.88 4.96L30.88 4.96L30.88 4.96Q30.88 4.77 30.91 4.61L30.91 4.61L30.91 4.61Q30.93 4.49 31.05 4.30L31.05 4.30L31.05 4.30Q31.18 4.12 31.35 3.96L31.35 3.96L31.35 3.96Q31.42 3.70 31.68 3.48L31.68 3.48L31.68 3.48Q31.93 3.26 32.17 3.19L32.17 3.19L32.17 3.19Q32.27 3.21 32.32 3.30L32.32 3.30L32.32 3.30Q32.37 3.39 32.39 3.52L32.39 3.52L32.39 3.52Q32.41 3.65 32.41 3.79L32.41 3.79L32.41 3.79Q32.41 3.93 32.41 4.06L32.41 4.06L32.41 4.06Q32.42 4.09 32.42 4.14Z"></path></g><defs data-v-fde0c5aa=""><linearGradient data-v-fde0c5aa="" gradientTransform="rotate(25)" id="f4389fda-cfe1-4a0f-9743-0e3725638676" x1="0%" y1="0%" x2="100%" y2="0%"><stop data-v-fde0c5aa="" offset="0%" stop-color="#006678" stop-opacity="1"></stop><stop data-v-fde0c5aa="" offset="100%" stop-color="#4FA8FF" stop-opacity="1"></stop></linearGradient></defs><g data-v-fde0c5aa="" id="a121f8db-165b-4020-bb42-75cb97481bfd" stroke="none" fill="url(#f4389fda-cfe1-4a0f-9743-0e3725638676)" transform="matrix(1.4773463062163052,0,0,1.4773463062163052,75.59765216909497,34.09061477513477)"><path d="M13.779 27.344C4 52 24 82 52 80c14-1 25-12 28-26 1-9-2-17-8-24 1 1 1 2 1 3-7-11-25-11-33 0-3 6-3 12 0 18 3 5 10 7 16 4-10 12-25 2-27-11-2-17 15-28 31-26 19 3 30 24 24 42-8 24-39 32-59 17C4 62 1 34 13.75 14.248c1.11-2.413 1.371-3.56 2.136-5.366-1.409.193-9.325 12.121-8.339 14.129C-3 48 13 82 42 86c8 1 16 0 23-3 20-9 30-34 17-54-10-15-30-20-45-8-11 9-14 24-6 36 8 11 25 13 33 1 4-7 2-17-6-20s-7 9-13 8c-5-1-3-10 1-14s9-4 13-4c18 2 23 26 12 39-16 18-44 11-54-9-5-11-6-24-.412-35.082 2.484-5.218.731-3.032-2.809 4.426z"></path><path d="M69.784 65.643C74 59 78 50 74 42v7c0-7-4-12-9-16-5-3-12-3-16 2 10-4 19 3 20 12 1 7-3 15-10 18-11 5-23 2-30-8-9-13-5-30 8-39 18-12 43-3 52 16-7-21-35-31-54-17-18 13-18 39-1 51-14-9-19-28-11-43 4-7 11-12 18-17-6 1-10 5-15 8 5-6 12-9 19-12C21 8 8 36 18 57c8 16 29 25 44.077 15.454 3.07-1.703 5.733-3.971 7.707-6.811z"></path><path d="M81.866 16.398C77 12 70 10 64 8c10 3 18 10 25 18-4-2-5-7-9-9 16 15 18 42 3 59-16 18-42 19-61.517 7.911-1.858.368-1.048 2.288.591 3.394 2.03 1.37 4.186 1.941 6.27 2.738.553.971 15.536 6.354 19.084 4.847C64 95 80 87 90 72c10-16 8-37-3.603-50.884a46.214 46.214 0 0 0-4.531-4.718z"></path></g><!----></svg>